# File created by Blade
# Date/Time:  Mon Sep 22 17:38:34 2014
# Frame Rate: 120.000 fps
#------------------------------------------------------
:FULLY-SPECIFIED
:DEGREES
3790
root 3.401974 38.570639 6.098389 21.759506 34.520619 43.139782
RightUpLeg 3.931460 -26.008239 -32.923380
RightLeg 18.273749 -0.000000 -0.000000
RightFoot -30.515747 -25.394363 24.901373
RightToeBase 9.683461 -0.000000 -0.000000
LeftUpLeg 3.677720 26.475785 6.157793
LeftLeg 97.406142 -0.000000 -0.000000
LeftFoot 15.615179 27.013655 -20.528660
LeftToeBase -4.582200 -0.000000 0.000000
Spine 12.600293 -3.458531 -11.696516
RightShoulder -0.968166 -20.016980 -19.558866
RightArm 22.285990 17.977134 50.839452
RightForeArm 7.263518 -0.000000 113.794273
RightHand 4.443462 0.000000 -37.141155
RightHandThumb1 -24.326973 -0.000000 -32.862282
LeftShoulder -25.830570 38.995798 -15.481146
LeftArm 28.049583 -5.127799 -69.791985
LeftForeArm 31.008975 -0.000000 71.418144
LeftHand -26.319957 -0.000000 11.358699
LeftHandThumb1 -26.253704 0.000000 33.147579
Head 13.778786 -23.055367 -19.123846
3791
root 3.401721 38.554637 6.086574 21.724902 34.449540 43.036625
RightUpLeg 3.752233 -25.716301 -32.722326
RightLeg 18.286747 -0.000000 -0.000000
RightFoot -30.613175 -25.873748 24.720039
RightToeBase 9.764975 -0.000000 -0.000000
LeftUpLeg 3.598542 26.443180 6.112113
LeftLeg 97.288609 -0.000000 -0.000000
LeftFoot 15.778683 27.174890 -20.521483
LeftToeBase -4.490672 -0.000000 0.000000
Spine 12.626219 -3.354834 -11.602586
RightShoulder -0.955480 -19.940146 -19.607917
RightArm 22.253063 18.072023 50.861417
RightForeArm 7.087578 -0.000000 113.788481
RightHand 4.402069 0.000000 -37.175158
RightHandThumb1 -24.326973 -0.000000 -32.862282
LeftShoulder -25.882464 39.057824 -15.506125
LeftArm 27.935223 -5.192663 -69.934630
LeftForeArm 30.974921 -0.000000 70.961503
LeftHand -26.284425 0.000000 11.267244
LeftHandThumb1 -26.253704 0.000000 33.147579
Head 13.678255 -23.083216 -19.013128
3792
root 3.399736 38.537023 6.074117 21.683969 34.379057 42.927112
RightUpLeg 3.565939 -25.382545 -32.513407
RightLeg 18.333086 -0.000000 -0.000000
RightFoot -30.779172 -26.331177 24.624620
RightToeBase 10.008610 -0.000000 -0.000000
LeftUpLeg 3.514221 26.449403 6.109765
LeftLeg 97.255436 -0.000000 -0.000000
LeftFoot 15.927194 27.449844 -20.663053
LeftToeBase -4.562913 -0.000000 0.000000
Spine 12.660807 -3.272423 -11.522953
RightShoulder -0.915403 -19.849988 -19.654145
RightArm 22.229650 18.175411 50.863934
RightForeArm 6.941381 0.000000 113.782996
RightHand 4.368340 -0.000000 -37.166258
RightHandThumb1 -24.326973 -0.000000 -32.862282
LeftShoulder -25.944710 39.083677 -15.516760
LeftArm 27.803213 -5.253409 -70.068492
LeftForeArm 30.819486 -0.000000 70.457749
LeftHand -26.108404 -0.000000 11.426626
LeftHandThumb1 -26.253704 0.000000 33.147579
Head 13.580163 -23.118038 -18.884888
3793
root 3.397054 38.519181 6.062336 21.600606 34.330308 42.815224
RightUpLeg 3.411820 -25.038990 -32.317699
RightLeg 18.430590 -0.000000 -0.000000
RightFoot -30.963135 -26.757476 24.549107
RightToeBase 10.089365 -0.000000 -0.000000
LeftUpLeg 3.457500 26.458096 6.145781
LeftLeg 97.310180 -0.000000 -0.000000
LeftFoot 16.159515 27.737237 -20.741426
LeftToeBase -4.533592 -0.000000 0.000000
Spine 12.764397 -3.212840 -11.448874
RightShoulder -0.851616 -19.714480 -19.706854
RightArm 22.175477 18.274938 50.844963
RightForeArm 6.863034 -0.000000 113.797118
RightHand 4.361360 -0.000000 -37.144729
RightHandThumb1 -24.326973 -0.000000 -32.862282
LeftShoulder -25.978476 39.084387 -15.500960
LeftArm 27.619657 -5.324305 -70.224864
LeftForeArm 30.977941 -0.000000 69.957658
LeftHand -26.133144 -0.000000 11.543608
LeftHandThumb1 -26.253704 0.000000 33.147579
Head 13.451283 -23.188562 -18.724708
3794
root 3.397954 38.502383 6.049255 21.473535 34.295232 42.728634
RightUpLeg 3.305015 -24.747020 -32.196026
RightLeg 18.597340 -0.000000 -0.000000
RightFoot -31.144189 -27.075355 24.500871
RightToeBase 10.190761 -0.000000 -0.000000
LeftUpLeg 3.449143 26.462662 6.173867
LeftLeg 97.439573 -0.000000 -0.000000
LeftFoot 16.382549 27.942528 -20.775259
LeftToeBase -4.303006 -0.000000 0.000000
Spine 12.956866 -3.160012 -11.399347
RightShoulder -0.789202 -19.578511 -19.745991
RightArm 22.142124 18.428540 50.823169
RightForeArm 6.857318 0.000000 113.831837
RightHand 4.286465 -0.000000 -36.993001
RightHandThumb1 -24.326973 -0.000000 -32.862282
LeftShoulder -26.034646 39.111029 -15.500372
LeftArm 27.552686 -5.420159 -70.404240
LeftForeArm 30.833880 -0.000000 69.474980
LeftHand -26.743633 -0.000000 11.381485
LeftHandThumb1 -26.253704 0.000000 33.147579
Head 13.301025 -23.302814 -18.542075
3795
root 3.395830 38.484928 6.036637 21.322152 34.311500 42.639876
RightUpLeg 3.240936 -24.549172 -32.092140
RightLeg 18.801001 -0.000000 -0.000000
RightFoot -31.269298 -27.324486 24.369625
RightToeBase 9.890475 -0.000000 -0.000000
LeftUpLeg 3.436890 26.446667 6.238941
LeftLeg 97.648181 -0.000000 -0.000000
LeftFoot 16.654628 28.095503 -20.748389
LeftToeBase -4.353839 -0.000000 0.000000
Spine 13.199814 -3.186361 -11.337824
RightShoulder -0.708533 -19.431578 -19.818420
RightArm 22.136461 18.522918 50.769166
RightForeArm 6.825039 -0.000000 113.865591
RightHand 4.119881 0.000000 -37.008059
RightHandThumb1 -24.326973 -0.000000 -32.862282
LeftShoulder -26.118594 39.127822 -15.532405
LeftArm 27.498684 -5.520953 -70.561042
LeftForeArm 30.764521 -0.000000 68.857653
LeftHand -25.992422 0.000000 11.738651
LeftHandThumb1 -26.253704 0.000000 33.147579
Head 13.122745 -23.391614 -18.375299
3796
root 3.391749 38.466430 6.021890 21.235650 34.345073 42.589281
RightUpLeg 3.108444 -24.460189 -32.022212
RightLeg 19.110617 -0.000000 -0.000000
RightFoot -31.407304 -27.443747 24.271695
RightToeBase 10.183541 -0.000000 -0.000000
LeftUpLeg 3.333261 26.433278 6.237026
LeftLeg 97.927431 -0.000000 -0.000000
LeftFoot 16.875582 28.239831 -20.728971
LeftToeBase -4.267965 -0.000000 0.000000
Spine 13.388672 -3.225307 -11.321511
RightShoulder -0.635091 -19.281955 -19.865005
RightArm 22.103852 18.604466 50.691371
RightForeArm 6.949283 -0.000000 113.887256
RightHand 4.088430 -0.000000 -36.930065
RightHandThumb1 -24.326973 -0.000000 -32.862282
LeftShoulder -26.164018 39.150740 -15.522073
LeftArm 27.410886 -5.600024 -70.703115
LeftForeArm 30.863436 -0.000000 68.240591
LeftHand -25.696926 -0.000000 12.231043
LeftHandThumb1 -26.253704 0.000000 33.147579
Head 13.001651 -23.494308 -18.187364
3797
root 3.385736 38.445593 6.007074 21.141534 34.412196 42.510050
RightUpLeg 2.965529 -24.397323 -31.921701
RightLeg 19.450276 -0.000000 -0.000000
RightFoot -31.557960 -27.587286 24.207336
RightToeBase 9.888663 -0.000000 -0.000000
LeftUpLeg 3.207011 26.420953 6.274951
LeftLeg 98.262600 -0.000000 -0.000000
LeftFoot 17.000403 28.304133 -20.885021
LeftToeBase -4.044694 -0.000000 0.000000
Spine 13.565629 -3.254827 -11.260047
RightShoulder -0.599591 -19.170409 -19.930113
RightArm 22.094673 18.658449 50.614988
RightForeArm 7.032503 -0.000000 113.887892
RightHand 4.117212 -0.000000 -36.980638
RightHandThumb1 -24.326973 -0.000000 -32.862282
LeftShoulder -26.183276 39.182338 -15.485085
LeftArm 27.364723 -5.669959 -70.853656
LeftForeArm 30.821422 -0.000000 67.666595
LeftHand -26.466831 -0.000000 12.153510
LeftHandThumb1 -26.253704 0.000000 33.147579
Head 12.918719 -23.634562 -18.032151
3798
root 3.379414 38.424099 5.995456 21.025380 34.502843 42.428384
RightUpLeg 2.865994 -24.378650 -31.832208
RightLeg 19.783798 -0.000000 -0.000000
RightFoot -31.675789 -27.653735 24.112068
RightToeBase 10.181547 -0.000000 -0.000000
LeftUpLeg 3.113287 26.434077 6.360923
LeftLeg 98.610446 -0.000000 -0.000000
LeftFoot 17.220114 28.331819 -20.879864
LeftToeBase -4.258683 -0.000000 0.000000
Spine 13.766433 -3.347376 -11.203344
RightShoulder -0.483149 -19.035744 -20.032557
RightArm 22.032844 18.704486 50.539086
RightForeArm 7.016412 0.000000 113.913607
RightHand 4.129094 -0.000000 -36.999929
RightHandThumb1 -24.326973 -0.000000 -32.862282
LeftShoulder -26.313452 39.177964 -15.494345
LeftArm 27.356487 -5.739903 -71.023270
LeftForeArm 30.798933 -0.000000 67.015381
LeftHand -27.052287 -0.000000 12.004859
LeftHandThumb1 -26.253704 0.000000 33.147579
Head 12.836498 -23.720860 -17.888643
3799
root 3.373639 38.402229 5.985551 20.909556 34.621795 42.359140
RightUpLeg 2.807787 -24.453241 -31.771849
RightLeg 20.115023 -0.000000 -0.000000
RightFoot -31.753256 -27.704510 23.907397
RightToeBase 10.212628 -0.000000 -0.000000
LeftUpLeg 3.013857 26.434322 6.434587
LeftLeg 98.959644 -0.000000 -0.000000
LeftFoot 17.512490 28.278732 -20.735122
LeftToeBase -4.288930 -0.000000 0.000000
Spine 13.957876 -3.422587 -11.144949
RightShoulder -0.378449 -18.942403 -20.145003
RightArm 21.953032 18.756762 50.485100
RightForeArm 6.986646 -0.000000 113.947075
RightHand 4.097602 -0.000000 -36.932233
RightHandThumb1 -24.326973 -0.000000 -32.862282
LeftShoulder -26.319817 39.229502 -15.437418
LeftArm 27.321801 -5.842271 -71.194939
LeftForeArm 30.720775 -0.000000 66.331142
LeftHand -27.081126 -0.000000 12.326460
LeftHandThumb1 -26.253704 0.000000 33.147579
Head 12.842403 -23.836610 -17.783240
3800
root 3.363616 38.378937 5.974603 20.806695 34.717329 42.273186
RightUpLeg 2.709851 -24.486903 -31.679933
RightLeg 20.440456 -0.000000 -0.000000
RightFoot -31.862212 -27.728055 23.750031
RightToeBase 10.268671 -0.000000 -0.000000
LeftUpLeg 2.874868 26.486025 6.501728
LeftLeg 99.310295 -0.000000 -0.000000
LeftFoot 17.693229 28.273370 -20.849900
LeftToeBase -4.130423 -0.000000 0.000000
Spine 14.125538 -3.439840 -11.083677
RightShoulder -0.322859 -18.869655 -20.257041
RightArm 21.903721 18.793468 50.486223
RightForeArm 6.895366 -0.000000 113.961966
RightHand 4.055461 0.000000 -37.039076
RightHandThumb1 -24.326973 -0.000000 -32.862282
LeftShoulder -26.337195 39.284938 -15.387521
LeftArm 27.345259 -5.922100 -71.320317
LeftForeArm 30.680798 -0.000000 65.547506
LeftHand -26.152079 -0.000000 12.638375
LeftHandThumb1 -26.253704 0.000000 33.147579
Head 12.840580 -23.966198 -17.671438
3801
root 3.354369 38.356829 5.966550 20.685073 34.771592 42.161172
RightUpLeg 2.614653 -24.495594 -31.577500
RightLeg 20.722443 -0.000000 -0.000000
RightFoot -31.958859 -27.754979 23.596493
RightToeBase 10.284174 -0.000000 -0.000000
LeftUpLeg 2.772329 26.603491 6.590321
LeftLeg 99.610053 -0.000000 -0.000000
LeftFoot 17.876769 28.246115 -20.991631
LeftToeBase -4.025326 -0.000000 0.000000
Spine 14.280584 -3.420477 -11.019438
RightShoulder -0.239123 -18.784117 -20.385873
RightArm 21.820397 18.839092 50.521186
RightForeArm 6.783726 -0.000000 113.995014
RightHand 3.948357 0.000000 -37.121992
RightHandThumb1 -24.326973 -0.000000 -32.862282
LeftShoulder -26.351484 39.245199 -15.344604
LeftArm 27.285186 -5.986558 -71.377783
LeftForeArm 30.437840 -0.000000 64.827990
LeftHand -26.427814 -0.000000 13.051212
LeftHandThumb1 -26.253704 0.000000 33.147579
Head 12.850338 -24.102869 -17.585224
